<?xml version="1.0" encoding="UTF-8"?>
<svg width="163px" height="175px" viewBox="0 0 163 175" version="1.1" xmlns="http://www.w3.org/2000/svg" xmlns:xlink="http://www.w3.org/1999/xlink">
    <!-- Generator: Sketch 51.2 (57519) - http://www.bohemiancoding.com/sketch -->
    <title>Group</title>
    <desc>Created with Sketch.</desc>
    <defs>
        <path d="M69.2975576,0.653508772 C69.2975576,0.653508772 42.6446508,0.653508772 19.9896801,17.6447368 L34.6487788,51.627193 L67.9649123,51.627193 L70.630203,51.627193 L103.946336,51.627193 L118.605435,17.6447368 C95.9504644,0.653508772 69.2975576,0.653508772 69.2975576,0.653508772 Z" id="path-1"></path>
        <filter x="-21.3%" y="-41.2%" width="142.6%" height="182.4%" filterUnits="objectBoundingBox" id="filter-2">
            <feOffset dx="0" dy="0" in="SourceAlpha" result="shadowOffsetOuter1"></feOffset>
            <feGaussianBlur stdDeviation="7" in="shadowOffsetOuter1" result="shadowBlurOuter1"></feGaussianBlur>
            <feColorMatrix values="0 0 0 0 0.917647059   0 0 0 0 0.125490196   0 0 0 0 0.380392157  0 0 0 0.20739923 0" type="matrix" in="shadowBlurOuter1"></feColorMatrix>
        </filter>
        <path d="M67.9649123,148.346491 C30.428291,148.346491 0,122.306781 0,90.1842105 C0,58.0616404 30.428291,32.0219298 67.9649123,32.0219298 C105.501534,32.0219298 135.929825,58.0616404 135.929825,90.1842105 C135.929825,122.306781 105.501534,148.346491 67.9649123,148.346491 Z" id="path-3"></path>
        <filter x="-15.4%" y="-18.1%" width="130.9%" height="136.1%" filterUnits="objectBoundingBox" id="filter-4">
            <feOffset dx="0" dy="0" in="SourceAlpha" result="shadowOffsetOuter1"></feOffset>
            <feGaussianBlur stdDeviation="7" in="shadowOffsetOuter1" result="shadowBlurOuter1"></feGaussianBlur>
            <feColorMatrix values="0 0 0 0 0.917647059   0 0 0 0 0.125490196   0 0 0 0 0.380392157  0 0 0 0.390794837 0" type="matrix" in="shadowBlurOuter1"></feColorMatrix>
        </filter>
        <linearGradient x1="50%" y1="0%" x2="50%" y2="236.868669%" id="linearGradient-5">
            <stop stop-color="#EA2061" offset="0%"></stop>
            <stop stop-color="#BD0D82" offset="100%"></stop>
        </linearGradient>
        <polygon id="path-6" points="0.000792131845 0.000385344828 129.873977 0.000385344828 129.873977 40.1890013 0.000792131845 40.1890013"></polygon>
        <linearGradient x1="50%" y1="0%" x2="50%" y2="100%" id="linearGradient-8">
            <stop stop-color="#EA2061" offset="0%"></stop>
            <stop stop-color="#BD0D82" offset="100%"></stop>
        </linearGradient>
    </defs>
    <g id="Page-1" stroke="none" stroke-width="1" fill="none" fill-rule="evenodd">
        <g id="Desktop-HD" transform="translate(-1106.000000, -499.000000)">
            <g id="Group" transform="translate(1112.000000, 512.000000)">
                <g id="Group-21" transform="translate(7.842105, 0.000000)">
                    <path d="M69.2975576,0.653508772 C69.2975576,0.653508772 42.6446508,0.653508772 19.9896801,17.6447368 L34.6487788,51.627193 L67.9649123,51.627193 L70.630203,51.627193 L103.946336,51.627193 L118.605435,17.6447368 C95.9504644,0.653508772 69.2975576,0.653508772 69.2975576,0.653508772" id="Fill-1" fill="#FFFFFF"></path>
                    <g id="Stroke-3">
                        <use fill="black" fill-opacity="1" filter="url(#filter-2)" xlink:href="#path-1"></use>
                        <use fill="#FFFFFF" fill-rule="evenodd" xlink:href="#path-1"></use>
                    </g>
                    <g id="Fill-5">
                        <use fill="black" fill-opacity="1" filter="url(#filter-4)" xlink:href="#path-3"></use>
                        <use fill="#FFDFD7" fill-rule="evenodd" xlink:href="#path-3"></use>
                    </g>
                    <g id="Group-2" transform="translate(14.659099, 88.877193)">
                        <path d="M23.9876161,9.14912281 C23.9876161,14.2024236 19.8117286,18.2982456 14.6596453,18.2982456 C9.50756206,18.2982456 5.33058136,14.2024236 5.33058136,9.14912281 C5.33058136,4.095822 9.50756206,0 14.6596453,0 C19.8117286,0 23.9876161,4.095822 23.9876161,9.14912281" id="Fill-7" fill="#EA2061"></path>
                        <path d="M10.6611627,9.14912281 C10.6611627,9.14912281 3.70841944,7.84128838 0,2.61403509" id="Stroke-9" stroke="#EA2061" stroke-width="5.184" stroke-linecap="round" stroke-linejoin="round"></path>
                    </g>
                    <g id="Group-2" transform="translate(105.535260, 99.153055) scale(-1, 1) translate(-105.535260, -99.153055) translate(92.465084, 88.877193)">
                        <path d="M23.9876161,9.14912281 C23.9876161,14.2024236 19.8117286,18.2982456 14.6596453,18.2982456 C9.50756206,18.2982456 5.33058136,14.2024236 5.33058136,9.14912281 C5.33058136,4.095822 9.50756206,0 14.6596453,0 C19.8117286,0 23.9876161,4.095822 23.9876161,9.14912281" id="Fill-7" fill="#EA2061"></path>
                        <path d="M10.6611627,9.14912281 C10.6611627,9.14912281 3.70841944,7.84128838 0,2.61403509" id="Stroke-9" stroke="#EA2061" stroke-width="5.184" stroke-linecap="round" stroke-linejoin="round"></path>
                    </g>
                    <path d="M80.625043,108.592246 C80.2772226,116.001728 74.894668,121.887228 68.3074021,121.887228 C61.4949192,121.887228 55.9711042,115.592632 55.9711042,107.828947" id="Stroke-11" stroke="#EA2061" stroke-width="5.184" stroke-linecap="round" stroke-linejoin="round"></path>
                    <polygon id="Fill-17" fill="url(#linearGradient-5)" points="80.625043 13.5474982 73.4754008 13.5474982 73.4754008 6.53534912 67.1186825 6.53534912 67.1186825 13.5474982 59.9690402 13.5474982 59.9690402 19.7819719 67.1186825 19.7819719 67.1186825 26.7941211 73.4754008 26.7941211 73.4754008 19.7819719 80.625043 19.7819719"></polygon>
                </g>
                <g id="Group-3" transform="translate(10.456140, 30.827586)">
                    <mask id="mask-7" fill="white">
                        <use xlink:href="#path-6"></use>
                    </mask>
                    <g id="Clip-2"></g>
                    <path d="M65.0506592,0.000256896552 L64.9371203,0.000256896552 L64.8235814,0.000256896552 C60.8748042,0.00539482759 15.5688233,0.891687931 0.000792131845,38.9637569 C0.000792131845,38.9637569 60.6543275,49.755981 64.9371203,7.28070517 C69.2199132,49.755981 129.874769,38.9637569 129.874769,38.9637569 C114.306738,0.891687931 68.9994365,0.00539482759 65.0506592,0.000256896552" id="Fill-1" fill="url(#linearGradient-8)" mask="url(#mask-7)"></path>
                </g>
                <ellipse id="Oval-2" fill="#FFDFD7" fill-rule="nonzero" cx="142.464912" cy="92.4827586" rx="6.53508772" ry="7.70689655"></ellipse>
                <ellipse id="Oval-2" fill="#FFDFD7" fill-rule="nonzero" cx="6.53508772" cy="92.4827586" rx="6.53508772" ry="7.70689655"></ellipse>
            </g>
        </g>
    </g>
</svg>